<svg width="50" height="49" viewBox="0 0 50 49" fill="none" xmlns="http://www.w3.org/2000/svg">
<path fill-rule="evenodd" clip-rule="evenodd" d="M0.00662807 20.7702C0.00662807 24.4081 -0.307616 28.7049 3.39139 30.5598C4.56786 31.1497 6.42799 31.8939 7.01357 30.0475C7.94853 27.0997 5.67037 20.6687 10.3873 12.8021C11.4849 10.972 12.3451 10.1296 13.806 8.67094C15.5002 6.97924 18.6892 5.38458 21.1206 4.77074C25.6966 3.61534 31.0624 4.58196 34.667 7.26342L35.9759 8.27917C36.642 8.78907 37.7641 9.99035 38.3194 10.6659C40.4497 13.2572 42.1549 16.9873 42.709 20.2842C43.4454 24.6651 43.2803 27.9705 41.6024 31.9848C40.6021 34.3784 38.498 37.1285 36.6236 39.0325C35.7707 39.8985 35.4761 39.6991 35.4761 41.3673C35.4761 41.7095 35.6714 42.2243 35.8218 42.4301C36.8684 43.8632 39.1604 41.8946 39.9936 41.0575C44.8797 36.146 44.0894 32.8475 46.359 31.1684C46.625 30.9715 46.8375 30.8607 47.0995 30.6634C48.1284 29.888 48.7287 28.9733 49.1921 27.7793C49.8104 26.1855 50.1438 22.8236 49.9403 21.2078C49.6085 18.5739 49.4773 15.5161 47.267 13.8548C46.8163 13.5162 46.1624 13.269 45.6059 13.0234C44.8597 12.6941 44.4592 12.5374 43.8941 11.9942C42.6506 10.7991 41.875 9.20642 40.786 7.88538C40.3602 7.36857 39.9777 7.04014 39.5699 6.52942L38.2724 5.33708C36.5925 4.0408 35.9918 3.4294 33.7292 2.32312C29.3155 0.164966 24.4441 -0.220709 19.674 1.10114C17.8568 1.60455 16.3489 2.33084 14.8312 3.23819L13.1501 4.3806C12.8735 4.58684 12.6107 4.76181 12.3508 4.99281L10.8515 6.31547C10.0256 7.14244 9.01713 8.36564 8.2971 9.32009L7.06424 10.9074C6.59921 11.406 6.11824 11.8083 5.55023 12.2159C4.9716 12.6308 4.40849 12.9475 3.83599 13.325C0.892149 15.2668 0.00662807 16.7401 0.00662807 20.7706V20.7702Z" fill="#fff"/>
<path fill-rule="evenodd" clip-rule="evenodd" d="M30.5645 30.7794C31.3119 31.2767 30.9453 30.2281 30.6478 29.7868C29.6279 29.7868 29.6549 30.125 28.5478 29.8055C28.2949 29.7324 27.7694 29.5529 27.5565 29.546C27.0927 29.531 26.9848 29.7458 26.9848 30.2005C26.6436 30.2005 26.2325 30.1237 26.0024 29.9354L25.8852 29.8038C25.6322 29.5542 25.5309 29.6427 25.15 29.5412C24.9048 29.4758 24.77 29.3954 24.5697 29.2903C24.6874 28.853 25.8402 27.804 22.6332 28.4418C22.2466 28.5189 22.0578 28.5851 21.6909 28.6663C21.0489 28.808 21.0881 28.646 20.6562 28.5461C18.9485 29.682 19.5304 30.1485 18.895 30.5188C18.4634 30.7705 18.5325 30.6056 18.1357 31.0055C17.8615 31.282 17.1779 32.044 17.1055 32.4646C17.0365 32.8665 17.2649 32.9083 17.0708 33.5035C16.9646 33.8291 16.795 34.0678 16.7055 34.3869C16.4754 35.2057 17.1803 35.552 17.4933 35.9901C19.0862 38.2209 19.2509 37.355 20.8013 37.5039C21.4706 37.5685 21.5237 37.2567 22.178 37.1625C22.6111 37.1 22.6549 37.1913 22.7378 37.2319C23.2061 37.4605 22.5425 37.1495 23.2981 37.7504L23.8922 38.5729C24.2665 39.0316 23.7758 38.7994 24.119 39.4124C24.4157 39.9422 25.3388 40.5601 25.2636 41.9977C25.1888 43.4243 24.251 42.8275 25.293 44.8675C25.6825 45.6303 25.6584 46.0696 25.9113 46.735C26.031 47.0496 26.4221 47.6269 26.5181 48.0398C26.6003 48.3934 26.2991 48.9792 27.5332 48.7815C28.952 48.5546 28.8482 48.6252 30.0447 47.469C30.4468 47.0805 30.3197 47.2469 30.4962 46.6769C30.6442 46.1991 30.7643 46.3323 31.1178 46.0529C31.8476 45.4765 30.6581 44.8931 31.6466 44.3454C32.5337 43.8538 32.7973 43.9679 32.9583 43.0837C33.2472 41.4943 32.2795 41.1829 33.0106 39.9926C33.8634 38.6033 34.7314 38.4706 35.4518 37.2892C35.6945 36.8913 36.2597 35.9982 35.9765 35.4116C35.3419 35.1091 34.4474 36.0315 33.8904 35.5845C33.4908 35.2638 33.9104 35.6401 33.7584 35.2073C33.5582 34.6374 32.6011 34.9548 31.647 32.5161C31.2428 31.4833 30.7194 31.3559 30.5645 30.7794Z" fill="#fff"/>
</svg>
