<svg width="172" height="34" viewBox="0 0 172 34" fill="none" xmlns="http://www.w3.org/2000/svg">
<path fill-rule="evenodd" clip-rule="evenodd" d="M0.00459914 14.5155C0.00459914 17.0398 -0.213451 20.0213 2.35325 21.3084C3.16959 21.7177 4.46031 22.2341 4.86664 20.9529C5.5154 18.9075 3.93461 14.4451 7.20763 8.98654C7.96924 7.71663 8.56611 7.1321 9.57981 6.11995C10.7554 4.9461 12.9682 3.83958 14.6554 3.41365C17.8306 2.61193 21.5539 3.28266 24.055 5.14329L24.9633 5.84811C25.4254 6.20192 26.2041 7.03547 26.5894 7.50423C28.0676 9.30232 29.2508 11.8906 29.6353 14.1783C30.1463 17.2181 30.0317 19.5117 28.8675 22.2972C28.1733 23.9581 26.7133 25.8663 25.4127 27.1875C24.8209 27.7884 24.6165 27.6501 24.6165 28.8076C24.6165 29.045 24.752 29.4022 24.8564 29.5451C25.5825 30.5395 27.173 29.1735 27.7511 28.5926C31.1415 25.1846 30.5931 22.8958 32.168 21.7307C32.3526 21.5941 32.5 21.5172 32.6818 21.3802C33.3958 20.8422 33.8123 20.2075 34.1338 19.379C34.5629 18.2731 34.7942 15.9403 34.653 14.8192C34.4228 12.9915 34.3318 10.8697 32.798 9.71699C32.4853 9.48205 32.0316 9.31049 31.6454 9.14006C31.1276 8.9116 30.8498 8.80287 30.4576 8.42595C29.5948 7.59662 29.0566 6.49151 28.3009 5.57486C28.0055 5.21625 27.7401 4.98835 27.4571 4.63398L26.5568 3.80662C25.3911 2.90715 24.9743 2.48291 23.4043 1.71527C20.3417 0.217751 16.9615 -0.049865 13.6516 0.867353C12.3906 1.21666 11.3443 1.72063 10.2912 2.35023L9.12471 3.14293C8.93274 3.28604 8.75042 3.40745 8.57008 3.56774L7.52974 4.48552C6.95668 5.05934 6.25688 5.90811 5.75727 6.57039L4.9018 7.67184C4.57912 8.01777 4.24538 8.29693 3.85124 8.57976C3.44973 8.86766 3.059 9.08738 2.66175 9.34937C0.619052 10.6967 0.00459914 11.719 0.00459914 14.5158V14.5155Z" fill="#FFF"/>
<path fill-rule="evenodd" clip-rule="evenodd" d="M21.2081 21.4608C21.7267 21.8058 21.4724 21.0782 21.266 20.772C20.5582 20.772 20.5769 21.0067 19.8088 20.785C19.6333 20.7342 19.2686 20.6097 19.1209 20.6049C18.7991 20.5945 18.7242 20.7435 18.7242 21.059C18.4875 21.059 18.2022 21.0058 18.0426 20.8751L17.9612 20.7838C17.7857 20.6106 17.7153 20.672 17.4511 20.6016C17.2809 20.5562 17.1874 20.5004 17.0484 20.4275C17.1301 20.1241 17.93 19.3962 15.7047 19.8387C15.4365 19.8922 15.3055 19.9382 15.0508 19.9945C14.6054 20.0928 14.6326 19.9804 14.3329 19.9111C13.1479 20.6993 13.5517 21.023 13.1108 21.2799C12.8113 21.4546 12.8593 21.3402 12.5839 21.6177C12.3937 21.8095 11.9193 22.3383 11.8691 22.6301C11.8212 22.909 11.9797 22.938 11.845 23.351C11.7713 23.5769 11.6536 23.7425 11.5915 23.9639C11.4319 24.5321 11.921 24.7724 12.1382 25.0764C13.2435 26.6243 13.3577 26.0235 14.4335 26.1268C14.898 26.1716 14.9348 25.9553 15.3888 25.8899C15.6894 25.8466 15.7197 25.9099 15.7773 25.9381C16.1022 26.0967 15.6417 25.8809 16.166 26.2978L16.5783 26.8686C16.838 27.1869 16.4975 27.0258 16.7357 27.4511C16.9415 27.8187 17.5821 28.2475 17.5299 29.245C17.478 30.2349 16.8273 29.8208 17.5503 31.2363C17.8205 31.7657 17.8038 32.0705 17.9793 32.5322C18.0624 32.7505 18.3338 33.1511 18.4004 33.4375C18.4574 33.6829 18.2484 34.0894 19.1047 33.9522C20.0892 33.7947 20.0172 33.8438 20.8474 33.0415C21.1265 32.7719 21.0383 32.8874 21.1608 32.4919C21.2634 32.1603 21.3468 32.2527 21.592 32.0589C22.0985 31.6589 21.2731 31.2541 21.959 30.8741C22.5745 30.5329 22.7574 30.6121 22.8692 29.9985C23.0696 28.8957 22.3982 28.6796 22.9054 27.8537C23.4972 26.8897 24.0995 26.7976 24.5994 25.9778C24.7678 25.7018 25.16 25.082 24.9635 24.675C24.5231 24.4651 23.9024 25.1051 23.5159 24.795C23.2386 24.5724 23.5298 24.8336 23.4243 24.5333C23.2854 24.1378 22.6213 24.358 21.9592 22.6659C21.6788 21.9492 21.3156 21.8608 21.2081 21.4608Z" fill="#FFF"/>
<path fill-rule="evenodd" clip-rule="evenodd" d="M104.403 16.065H96.1415C95.8622 16.065 95.6793 15.8836 95.6793 15.6058C95.6793 14.0294 95.5279 12.6536 96.4293 11.3C96.5033 11.189 96.5563 11.1102 96.6476 11.0003C96.9556 10.6296 97.0664 10.5011 97.4807 10.2205C99.0879 9.13233 101.591 9.11008 103.067 10.2172C104.965 11.6403 104.865 13.444 104.865 15.5481C104.865 15.8255 104.701 16.0647 104.403 16.0647V16.065ZM93.657 14.2858V25.4783C93.657 26.6485 95.2835 26.631 95.5934 25.9099C95.7828 25.4693 95.6731 19.8175 95.6759 18.7597C95.677 18.342 95.7947 18.0741 96.199 18.0741H104.345C105.051 18.0741 104.865 19.0789 104.865 19.9682C104.865 20.7446 104.773 25.5268 104.942 25.9186C105.2 26.5152 106.887 26.855 106.887 25.249V15.032C106.887 11.7006 105.991 9.32558 103.229 8.04834C99.1321 6.15447 93.6567 8.41596 93.6567 14.2858H93.657Z" fill="#FFF"/>
<path fill-rule="evenodd" clip-rule="evenodd" d="M47.8997 24.3303H44.9533C44.7758 24.3303 44.7222 24.1622 44.7222 23.9858V10.0382C44.7222 9.77034 44.8569 9.63653 45.1266 9.63653H47.4954C50.3989 9.63653 52.1751 11.551 52.1751 14.4578V19.6237C52.1751 22.2995 50.3544 24.3303 47.8997 24.3303ZM42.7578 8.43113V25.4783C42.7578 26.0019 43.2169 26.3394 43.74 26.3394H47.5532C50.133 26.3394 52.6225 24.8796 53.5378 22.6996C53.8217 22.0232 54.1395 21.0026 54.1395 20.0831V13.9415C54.1395 12.6626 53.5387 10.8845 52.7087 9.96753C52.0237 9.2106 51.4914 8.74579 50.4809 8.27789C49.8568 7.98886 48.7855 7.68491 47.9 7.68491H43.5668C43.207 7.68491 42.7578 8.04886 42.7578 8.43113Z" fill="#FFF"/>
<path fill-rule="evenodd" clip-rule="evenodd" d="M165.414 24.9041C162.858 24.9041 160.85 23.0627 160.85 20.4845C160.85 18.9555 160.972 17.7129 162.076 16.5942C163.403 15.2488 165.779 14.9612 167.493 15.7213C170.92 17.2408 170.943 23.0258 167.396 24.5199C166.894 24.7312 166.102 24.9041 165.414 24.9041ZM158.828 19.9679C158.828 21.8446 159.338 23.6106 160.604 24.861C161.196 25.4459 161.654 25.8631 162.468 26.2236C166.47 27.9964 169.204 25.5929 169.631 25.5929C170.366 25.5929 169.747 26.3966 171.191 26.3966C171.496 26.3966 172 26.0684 172 25.5357V14.5728C172 14.1237 171.498 13.7691 170.96 13.7691C170.065 13.7691 170.127 14.6302 169.631 14.6302C169.483 14.6302 168.916 14.2463 168.727 14.1511C166.734 13.1468 164.79 13.0358 162.689 13.875C160.381 14.797 158.828 17.1506 158.828 19.9682V19.9679Z" fill="#FFF"/>
<path fill-rule="evenodd" clip-rule="evenodd" d="M71.7611 24.9045C70.427 24.9045 69.2128 24.36 68.5394 23.6853C66.6456 21.788 66.8234 18.2161 68.4229 16.5946C69.753 15.2458 72.1935 14.9407 73.9189 15.7582C76.6413 17.0481 76.9427 20.7508 75.6718 22.8779C75.219 23.6357 74.5671 24.1735 73.7431 24.5205C73.2415 24.7318 72.4487 24.9048 71.7611 24.9048V24.9045ZM65.1748 20.0257C65.1748 22.7568 66.5154 25.2053 68.815 26.224C72.8187 27.9976 75.5505 25.5932 75.9786 25.5932C76.7201 25.5932 76.1094 26.3969 77.5384 26.3969C77.8484 26.3969 78.3474 26.0837 78.3474 25.5361V14.5731C78.3474 13.8097 77.0215 13.4609 76.5531 14.1105C75.9628 14.9297 76.1675 14.7021 75.0744 14.1514C70.4763 11.8344 65.1748 14.5875 65.1748 20.026V20.0257Z" fill="#FFF"/>
<path fill-rule="evenodd" clip-rule="evenodd" d="M142.767 8.31648V25.536C142.767 25.8045 142.86 26.0186 143.011 26.1541C143.412 26.5141 144.531 26.5941 144.748 25.7248C144.922 25.0256 144.246 21.7423 146.756 20.2578C149.584 18.585 154.001 19.8442 153.976 24.2726C153.969 25.5493 153.706 26.3972 155.073 26.3972C156.201 26.3972 155.939 25.1754 155.939 23.9292C155.939 23.043 155.709 22.1486 155.445 21.4933C155.025 20.4516 154.443 19.6862 153.58 18.9845C153.269 18.7321 153.031 18.6079 152.671 18.3943C151.684 17.8081 150.798 17.9126 150.798 17.3284C150.798 17.0143 151.531 16.0945 151.757 15.7559C151.887 15.5615 151.97 15.4297 152.103 15.2384C152.327 14.9167 152.697 14.5404 152.607 14.0981C152.489 13.517 151.903 13.3102 151.375 13.3102C150.959 13.3102 150.789 13.6727 150.614 13.9308L149.133 16.0187C149.019 16.1864 148.943 16.2993 148.825 16.4585C148.719 16.5996 148.642 16.7323 148.545 16.8686C147.55 18.2608 147.997 17.436 146.329 18.2262C145.896 18.4312 145.673 18.7053 145.252 18.7053C144.691 18.7053 144.789 18.1597 144.789 17.6149C144.79 16.3672 144.846 8.46606 144.749 8.06999C144.509 7.09925 142.767 7.17306 142.767 8.31648H142.767Z" fill="#FFF"/>
<path fill-rule="evenodd" clip-rule="evenodd" d="M109.719 14.6306C109.719 15.7631 111.137 15.3591 111.535 15.5819C112.129 15.9141 111.915 17.0814 111.915 17.9598C111.915 20.3531 111.867 23.091 111.912 25.4243C111.932 26.4618 113.196 26.717 113.718 26.0071C114 25.6232 113.879 23.5569 113.879 23.0107L113.879 16.6386C113.873 15.7929 114.057 15.4833 114.86 15.4898C115.425 15.4946 117.481 15.5695 117.926 15.3788C118.626 15.0783 118.525 13.956 117.729 13.7906C117.056 13.6506 114.766 13.9534 114.355 13.6416C113.589 13.0602 114.445 11.6874 114.791 11.1742C115.449 10.2012 116.721 9.46593 117.981 9.40706C118.535 9.38114 119.484 9.44199 119.484 8.37434C119.484 7.74305 118.845 7.39853 118.559 7.39853C115.659 7.39853 113.327 9.06197 112.435 11.3009C111.809 12.87 112.279 13.7926 110.876 13.7698C110.25 13.7596 109.72 13.9785 109.72 14.6309L109.719 14.6306Z" fill="#FFF"/>
<path fill-rule="evenodd" clip-rule="evenodd" d="M82.7381 8.43107V19.9107C82.7381 22.2341 83.515 24.2632 85.2546 25.561C86.1849 26.2551 87.1629 26.6326 88.3734 26.8247C89.2254 26.9599 89.9346 26.9856 90.1665 26.256C90.363 25.6374 90.1098 24.9041 89.1523 24.903C87.1651 24.9004 85.3788 23.6167 84.9095 21.5989C84.6203 20.3555 84.7598 18.1914 84.7598 16.6965V9.11983C84.7598 8.03979 84.8545 7.45526 83.6043 7.45526C83.0409 7.45526 82.7378 7.85894 82.7378 8.43107H82.7381Z" fill="#FFF"/>
<path fill-rule="evenodd" clip-rule="evenodd" d="M122.372 19.8533V25.6507C122.372 26.2378 123.13 26.5606 123.733 26.3722C124.467 26.142 124.336 25.5637 124.336 24.6749C124.336 23.5591 124.254 20.0731 124.425 19.1384C124.494 18.7649 124.552 18.5499 124.66 18.2243C124.774 17.8859 124.851 17.7054 125.018 17.431L125.491 16.7532C126.119 15.9453 127.483 15.3188 128.611 15.3188C130.451 15.3188 130.659 15.7205 131.385 15.7205C131.929 15.7205 132.309 15.3225 132.309 14.7447C132.309 13.999 131.65 13.8272 131.06 13.632C127.874 12.5759 124.386 13.9652 122.969 17.1177C122.65 17.8282 122.372 18.8539 122.372 19.8533H122.372Z" fill="#FFF"/>
<path fill-rule="evenodd" clip-rule="evenodd" d="M58.126 14.8023V20.6569C58.126 22.4257 58.7994 23.9942 59.6098 24.9798C60.1474 25.6337 61.1387 26.9458 62.1306 26.5875C62.819 26.3388 63.0751 25.4379 62.47 24.9508C61.8963 24.4886 61.657 24.4928 61.0145 23.5271C60.328 22.4955 60.148 21.8533 60.1483 20.5422L60.1511 14.7997C60.1432 13.4005 58.1263 13.4076 58.1263 14.8026L58.126 14.8023Z" fill="#FFF"/>
<path fill-rule="evenodd" clip-rule="evenodd" d="M135.198 14.8023V20.6569C135.198 22.4229 135.874 23.9939 136.682 24.9798C136.912 25.2618 137.094 25.4982 137.35 25.7511C137.592 25.9906 137.865 26.2498 138.167 26.4315C139.123 27.0073 139.877 26.2827 139.877 25.708C139.877 24.7111 139.131 25.0962 138.086 23.5271C137.4 22.4955 137.22 21.8533 137.22 20.5422L137.223 14.7997C137.215 13.4005 135.198 13.4076 135.198 14.8026L135.198 14.8023Z" fill="#FFF"/>
<path fill-rule="evenodd" clip-rule="evenodd" d="M58.126 10.6122C58.126 11.9423 60.0904 11.8649 60.0904 10.7271C60.0904 10.0837 59.7266 9.69409 59.1082 9.69409C58.5819 9.69409 58.126 10.0772 58.126 10.6124V10.6122Z" fill="#FFF"/>
<path fill-rule="evenodd" clip-rule="evenodd" d="M135.198 10.6122C135.198 11.9423 137.162 11.8649 137.162 10.7271C137.162 10.0837 136.798 9.69409 136.18 9.69409C135.654 9.69409 135.198 10.0772 135.198 10.6124V10.6122Z" fill="#FFF"/>
</svg>
